<?xml version="1.0" encoding="UTF-8"?>
<svg version="1.1" xmlns="http://www.w3.org/2000/svg" width="250" height="75">
<path d="M0 0 C5.28 0 10.56 0 16 0 C17.13764351 4.26616316 18 7.56486311 18 12 C18.66 12 19.32 12 20 12 C20.33 9.36 20.66 6.72 21 4 C21.66 4 22.32 4 23 4 C23 2.68 23 1.36 23 0 C27.62 0 32.24 0 37 0 C37 0.66 37 1.32 37 2 C37.66 2 38.32 2 39 2 C39.495 6.95 39.495 6.95 40 12 C40.66 12 41.32 12 42 12 C42.185625 10.4221875 42.185625 10.4221875 42.375 8.8125 C43 5 43 5 45 0 C49.62 0 54.24 0 59 0 C59 0.66 59 1.32 59 2 C59.66 2 60.32 2 61 2 C61.495 6.455 61.495 6.455 62 11 C62.66 11 63.32 11 64 11 C64.19335938 11.88042969 64.38671875 12.76085938 64.5859375 13.66796875 C64.97652344 15.41013672 64.97652344 15.41013672 65.375 17.1875 C65.63023437 18.33605469 65.88546875 19.48460938 66.1484375 20.66796875 C66.89439419 23.92976064 66.89439419 23.92976064 68.1015625 26.61328125 C69.08739487 29.23216637 69.15855016 31.22537213 69 34 C66.70858714 34.05384521 64.41681812 34.09272087 62.125 34.125 C60.84882813 34.14820313 59.57265625 34.17140625 58.2578125 34.1953125 C55 34 55 34 53 32 C52.43479997 29.34462628 52.26211802 26.70855287 52 24 C51.01 24.495 51.01 24.495 50 25 C49.50176522 26.8289141 49.50176522 26.8289141 49.1875 28.9375 C48.27551296 32.79962694 48.27551296 32.79962694 45.9375 34.5 C37.97728446 35.8549303 37.97728446 35.8549303 34 35 C30.86378579 31.62856972 29.53565124 28.55303553 29 24 C27.73305337 26.28050393 26.98076928 28.10336512 26.5 30.6875 C26.335 31.450625 26.17 32.21375 26 33 C22.99686252 34.50156874 20.20932478 34.09281204 16.875 34.0625 C15.59367187 34.05347656 14.31234375 34.04445312 12.9921875 34.03515625 C11.51105469 34.01775391 11.51105469 34.01775391 10 34 C10 32.68 10 31.36 10 30 C9.34 30 8.68 30 8 30 C7.67 26.7 7.34 23.4 7 20 C6.34 20 5.68 20 5 20 C4.34 16.7 3.68 13.4 3 10 C2.67 10 2.34 10 2 10 C2 8.02 2 6.04 2 4 C1.34 4 0.68 4 0 4 C0 2.68 0 1.36 0 0 Z " fill="#0DB7EF" transform="translate(84,5)"/>
<path d="M0 0 C5.28 0 10.56 0 16 0 C17.13764351 4.26616316 18 7.56486311 18 12 C18.66 12 19.32 12 20 12 C20.33 9.36 20.66 6.72 21 4 C21.66 4 22.32 4 23 4 C22.69201674 5.48011371 22.378482 6.95907325 22.0625 8.4375 C21.80146484 9.67306641 21.80146484 9.67306641 21.53515625 10.93359375 C21 13 21 13 20 14 C20.06378968 15.67012983 20.20028115 17.33780985 20.375 19 C20.46523437 19.9075 20.55546875 20.815 20.6484375 21.75 C20.76800458 23.96449427 20.76800458 23.96449427 22 25 C22.04080783 26.99958364 22.04254356 29.00045254 22 31 C23.32 31.66 24.64 32.32 26 33 C22.99686252 34.50156874 20.20932478 34.09281204 16.875 34.0625 C15.59367187 34.05347656 14.31234375 34.04445312 12.9921875 34.03515625 C11.51105469 34.01775391 11.51105469 34.01775391 10 34 C10 32.68 10 31.36 10 30 C9.34 30 8.68 30 8 30 C7.67 26.7 7.34 23.4 7 20 C6.34 20 5.68 20 5 20 C4.34 16.7 3.68 13.4 3 10 C2.67 10 2.34 10 2 10 C2 8.02 2 6.04 2 4 C1.34 4 0.68 4 0 4 C0 2.68 0 1.36 0 0 Z " fill="#16BBF2" transform="translate(84,5)"/>
<path d="M0 0 C4.62 0 9.24 0 14 0 C14 0.66 14 1.32 14 2 C14.66 2 15.32 2 16 2 C16.33 4.97 16.66 7.94 17 11 C17.66 11 18.32 11 19 11 C19.19335938 11.88042969 19.38671875 12.76085938 19.5859375 13.66796875 C19.97652344 15.41013672 19.97652344 15.41013672 20.375 17.1875 C20.63023437 18.33605469 20.88546875 19.48460938 21.1484375 20.66796875 C21.89439419 23.92976064 21.89439419 23.92976064 23.1015625 26.61328125 C24 29 24 29 24 34 C19.71 34 15.42 34 11 34 C11 32.68 11 31.36 11 30 C10.34 30 9.68 30 9 30 C8.67 27.69 8.34 25.38 8 23 C6.02 23 4.04 23 2 23 C1.67 21.02 1.34 19.04 1 17 C2.65 17 4.3 17 6 17 C5.37942344 14.91534475 4.7533655 12.83232072 4.125 10.75 C3.77695313 9.58984375 3.42890625 8.4296875 3.0703125 7.234375 C2.01976956 3.80024804 2.01976956 3.80024804 0 0 Z " fill="#0BBAF3" transform="translate(129,5)"/>
<path d="M0 0 C1.65 0 3.3 0 5 0 C5.06058594 0.92683594 5.12117187 1.85367188 5.18359375 2.80859375 C5.26738281 4.00613281 5.35117188 5.20367187 5.4375 6.4375 C5.51871094 7.63246094 5.59992187 8.82742187 5.68359375 10.05859375 C5.67656114 12.88570244 5.67656114 12.88570244 7 14 C8.65 14 10.3 14 12 14 C12.33 9.38 12.66 4.76 13 0 C14.65 0 16.3 0 18 0 C18.33 4.29 18.66 8.58 19 13 C20.98 13.66 22.96 14.32 25 15 C25.33 10.05 25.66 5.1 26 0 C27.65 0 29.3 0 31 0 C31.10854617 2.39706123 31.18753157 4.78915838 31.25 7.1875 C31.30027344 8.19780273 31.30027344 8.19780273 31.3515625 9.22851562 C31.4210442 12.78945294 31.07885515 14.86476877 29.2734375 17.9609375 C26.69882855 20.27012285 25.76662644 20.6133201 22.375 20.4375 C21.59898438 20.41558594 20.82296875 20.39367187 20.0234375 20.37109375 C18 20 18 20 16 18 C15.01 18.66 14.02 19.32 13 20 C6.05325857 20.78430952 6.05325857 20.78430952 2.26171875 17.9609375 C-0.53672642 14.29734261 -0.58676702 11.59686983 -0.3125 7.1875 C-0.28994141 6.49462891 -0.26738281 5.80175781 -0.24414062 5.08789062 C-0.18562661 3.39098427 -0.0959548 1.69520139 0 0 Z " fill="#1C63BB" transform="translate(7,44)"/>
<path d="M0 0 C0 6.6 0 13.2 0 20 C-1.65 20 -3.3 20 -5 20 C-5 18.35 -5 16.7 -5 15 C-7.31 15 -9.62 15 -12 15 C-12 16.65 -12 18.3 -12 20 C-13.65 20 -15.3 20 -17 20 C-17.08160748 18.10489301 -17.13946459 16.20875496 -17.1875 14.3125 C-17.22230469 13.25675781 -17.25710937 12.20101562 -17.29296875 11.11328125 C-16.95772511 7.55075886 -16.14947637 5.8353767 -14 3 C-10 0 -10 0 0 0 Z M-11 7 C-11.87822312 9.08533633 -11.87822312 9.08533633 -12 11 C-9.69 11 -7.38 11 -5 11 C-5 8.69 -5 6.38 -5 4 C-7.3205978 4 -9.19167857 5.734175 -11 7 Z " fill="#1C63BB" transform="translate(110,44)"/>
<path d="M0 0 C0 1.65 0 3.3 0 5 C-0.63808594 4.98839844 -1.27617187 4.97679687 -1.93359375 4.96484375 C-2.75988281 4.95582031 -3.58617187 4.94679688 -4.4375 4.9375 C-5.26121094 4.92589844 -6.08492187 4.91429687 -6.93359375 4.90234375 C-8.99163938 4.76732652 -8.99163938 4.76732652 -10 6 C-9.28972656 6.19335938 -8.57945312 6.38671875 -7.84765625 6.5859375 C-6.92855469 6.84632812 -6.00945312 7.10671875 -5.0625 7.375 C-4.14597656 7.63023438 -3.22945312 7.88546875 -2.28515625 8.1484375 C0 9 0 9 1 11 C1.3125 13.9375 1.3125 13.9375 1 17 C-1.24097518 19.25675669 -2.58501897 19.95069532 -5.76171875 20.328125 C-7.20998047 20.28945312 -7.20998047 20.28945312 -8.6875 20.25 C-9.66074219 20.23453125 -10.63398438 20.2190625 -11.63671875 20.203125 C-14 20 -14 20 -15 19 C-15 17.35 -15 15.7 -15 14 C-11.37 14.33 -7.74 14.66 -4 15 C-4 14.34 -4 13.68 -4 13 C-5.04800781 12.83564453 -5.04800781 12.83564453 -6.1171875 12.66796875 C-7.02726563 12.50941406 -7.93734375 12.35085937 -8.875 12.1875 C-9.77992188 12.03667969 -10.68484375 11.88585938 -11.6171875 11.73046875 C-14 11 -14 11 -16 8 C-16.36467846 5.0825723 -16.47575659 3.63434213 -14.6875 1.25 C-10.34343608 -1.96782513 -4.92637946 -1.64212649 0 0 Z " fill="#04A6DB" transform="translate(171,44)"/>
<path d="M0 0 C1.9375 1.0625 1.9375 1.0625 3 3 C3.99286767 6.82963243 4.28178398 9.17225957 3 12.9375 C1 15 1 15 -2.6875 15.3125 C-3.780625 15.209375 -4.87375 15.10625 -6 15 C-6.33 17.31 -6.66 19.62 -7 22 C-8.65 22 -10.3 22 -12 22 C-12.10806144 19.08234109 -12.18732877 16.16868875 -12.25 13.25 C-12.28351563 12.425 -12.31703125 11.6 -12.3515625 10.75 C-12.44992628 4.65144537 -12.44992628 4.65144537 -10.23828125 1.44921875 C-6.553909 -0.93629976 -4.33404174 -0.48156019 0 0 Z M-6 5 C-6.33 6.32 -6.66 7.64 -7 9 C-4.525 9.495 -4.525 9.495 -2 10 C-1.67 9.01 -1.34 8.02 -1 7 C-1.33 6.34 -1.66 5.68 -2 5 C-3.32 5 -4.64 5 -6 5 Z " fill="#1C63BB" transform="translate(124,49)"/>
<path d="M0 0 C2.20066025 1.59186082 2.90197996 2.46953859 3.3984375 5.15625 C3.39070312 5.9296875 3.38296875 6.703125 3.375 7.5 C3.38273438 8.2734375 3.39046875 9.046875 3.3984375 9.84375 C2.90346131 12.52244468 2.1965075 13.41670512 0 15 C-3.6875 15.1875 -3.6875 15.1875 -7 15 C-7 17.31 -7 19.62 -7 22 C-8.65 22 -10.3 22 -12 22 C-12.10806144 19.08234109 -12.18732877 16.16868875 -12.25 13.25 C-12.28351563 12.425 -12.31703125 11.6 -12.3515625 10.75 C-12.44992628 4.65144537 -12.44992628 4.65144537 -10.23828125 1.44921875 C-6.553909 -0.93629976 -4.33404174 -0.48156019 0 0 Z M-6 5 C-6.33 6.32 -6.66 7.64 -7 9 C-4.525 9.495 -4.525 9.495 -2 10 C-2.33 8.35 -2.66 6.7 -3 5 C-3.99 5 -4.98 5 -6 5 Z " fill="#1C63BB" transform="translate(142,49)"/>
<path d="M0 0 C1.65 0 3.3 0 5 0 C5.08710289 3.10398978 5.14042309 6.20766548 5.1875 9.3125 C5.21263672 10.19357422 5.23777344 11.07464844 5.26367188 11.98242188 C5.27817383 13.25375977 5.27817383 13.25375977 5.29296875 14.55078125 C5.31653442 15.72120972 5.31653442 15.72120972 5.34057617 16.9152832 C4.91225402 19.53710605 4.07685283 20.39523047 2 22 C-1.05200961 22.61371932 -3.9325386 22.49696302 -7 22 C-9.0625 20.5 -9.0625 20.5 -10 18 C-10.49064277 14.46594988 -10.65862348 11.23976185 -8.9375 8 C-5.97912322 6.47309585 -3.26283401 6.81531128 0 7 C0 4.69 0 2.38 0 0 Z M-4 12 C-4.33 13.32 -4.66 14.64 -5 16 C-2.525 16.495 -2.525 16.495 0 17 C0 15.35 0 13.7 0 12 C-1.32 12 -2.64 12 -4 12 Z " fill="#04A6DB" transform="translate(213,42)"/>
<path d="M0 0 C1.65 0 3.3 0 5 0 C5.33 2.31 5.66 4.62 6 7 C6.928125 6.938125 7.85625 6.87625 8.8125 6.8125 C12 7 12 7 13.67578125 8.23046875 C15.34351944 10.45903925 15.40261081 11.73891873 15.375 14.5 C15.38273437 15.2734375 15.39046875 16.046875 15.3984375 16.84375 C14.90197996 19.53046141 14.20066025 20.40813918 12 22 C5.17177914 22.75869121 5.17177914 22.75869121 1.76171875 20.55078125 C-0.87849751 16.7280291 -0.43387684 13.27619916 -0.25 8.75 C-0.23195312 7.90953125 -0.21390625 7.0690625 -0.1953125 6.203125 C-0.14830798 4.13492605 -0.07656724 2.06731559 0 0 Z M6 12 C5.67 13.32 5.34 14.64 5 16 C7.475 16.495 7.475 16.495 10 17 C9.67 15.35 9.34 13.7 9 12 C8.01 12 7.02 12 6 12 Z " fill="#1C63BB" transform="translate(58,42)"/>
<path d="M0 0 C3.9375 0.5 3.9375 0.5 5.875 1.5 C7.5853854 4.71954899 8.15710087 7.86194552 7.9375 11.5 C6.5 14 6.5 14 3.9375 15.5 C0.43136648 16.1125173 -2.79425423 16.19548961 -6 14.4375 C-7.67215977 11.38826749 -8.00271398 8.96758942 -8.0625 5.5 C-6.08871622 1.46661576 -4.38484397 0.18607271 0 0 Z M-2.0625 9.5 C-0.5775 10.49 -0.5775 10.49 0.9375 11.5 C1.2675 10.84 1.5975 10.18 1.9375 9.5 C0.6175 9.5 -0.7025 9.5 -2.0625 9.5 Z " fill="#1C63BB" transform="translate(48.0625,48.5)"/>
<path d="M0 0 C3.0182722 0.05418801 4.04925828 0.22609892 6.6875 1.875 C8.77142818 5.26138329 8.74552097 7.40635318 8.1875 11.3125 C6.6875 13.75 6.6875 13.75 4.1875 15.3125 C0.66879436 15.93553037 -2.57021003 16.03382966 -5.75 14.1875 C-7.28099826 11.48573836 -7.6882742 9.41814495 -7.8125 6.3125 C-4.92369545 0.40358159 -4.92369545 0.40358159 0 0 Z M-1.8125 5.3125 C-2.1425 6.3025 -2.4725 7.2925 -2.8125 8.3125 C-2.4825 8.9725 -2.1525 9.6325 -1.8125 10.3125 C-0.1625 9.9825 1.4875 9.6525 3.1875 9.3125 C2.8575 7.9925 2.5275 6.6725 2.1875 5.3125 C0.8675 5.3125 -0.4525 5.3125 -1.8125 5.3125 Z " fill="#04A6DB" transform="translate(235.8125,48.6875)"/>
<path d="M0 0 C1.98 0 3.96 0 6 0 C6 3.3 6 6.6 6 10 C7.32 10 8.64 10 10 10 C10.33 6.7 10.66 3.4 11 0 C12.65 0 14.3 0 16 0 C16.05437607 1.58294782 16.09296271 3.16644256 16.125 4.75 C16.14820313 5.63171875 16.17140625 6.5134375 16.1953125 7.421875 C15.98870725 10.14906426 15.47305841 11.71315408 14 14 C10.82178465 15.58910767 7.46060271 15.40420974 4 15 C1.32568511 13.18836733 1.04079641 12.12238923 0 9 C-0.06740865 7.43881572 -0.08514456 5.8749748 -0.0625 4.3125 C-0.05347656 3.50425781 -0.04445312 2.69601563 -0.03515625 1.86328125 C-0.02355469 1.24839844 -0.01195312 0.63351563 0 0 Z " fill="#04A6DB" transform="translate(185,49)"/>
<path d="M0 0 C2.17476401 1.54338091 2.81832637 2.63665273 4 5 C4.06996014 6.70702735 4.08440154 8.41668003 4.0625 10.125 C4.05347656 11.03507812 4.04445313 11.94515625 4.03515625 12.8828125 C4.02355469 13.58148438 4.01195313 14.28015625 4 15 C2.35 15 0.7 15 -1 15 C-1.33 12.03 -1.66 9.06 -2 6 C-3.32 5.67 -4.64 5.34 -6 5 C-6 8.3 -6 11.6 -6 15 C-7.65 15 -9.3 15 -11 15 C-11.08107583 13.06318839 -11.13922475 11.1254066 -11.1875 9.1875 C-11.22230469 8.10855469 -11.25710937 7.02960937 -11.29296875 5.91796875 C-11 3 -11 3 -9.73828125 1.13671875 C-6.67938334 -0.86359426 -3.51691757 -0.5580078 0 0 Z " fill="#1C63BB" transform="translate(87,49)"/>
<path d="M0 0 C2.93307942 4.39961912 5.1784767 9.38234179 4.8125 14.75 C3.93011742 17.19352098 2.9951262 19.59998975 2 22 C1.32204472 23.99620166 0.65266469 25.99538701 0 28 C-0.66 28 -1.32 28 -2 28 C-4.96313406 18.91305555 -5.9947996 11.86946344 -2.0078125 2.93359375 C-1 1 -1 1 0 0 Z " fill="#1E6ABF" transform="translate(108,8)"/>
<path d="M0 0 C2 1 2 1 2.8515625 3.1796875 C3.10679687 4.06914062 3.36203125 4.95859375 3.625 5.875 C3.88539063 6.75929688 4.14578125 7.64359375 4.4140625 8.5546875 C5 11 5 11 5 14 C3.35 14 1.7 14 0 14 C0.350625 14.825 0.70125 15.65 1.0625 16.5 C2.22335775 20.83386892 1.75705178 23.60909969 1 28 C0.34 28 -0.32 28 -1 28 C-4.55087426 19.10159399 -5.80017251 12.96182414 -2 4 C-1.35064476 2.65815053 -0.68976129 1.3215338 0 0 Z " fill="#1A6DC1" transform="translate(130,8)"/>
<path d="M0 0 C1.65 0 3.3 0 5 0 C5 0.99 5 1.98 5 3 C6.32 3 7.64 3 9 3 C9 4.65 9 6.3 9 8 C7.68 8 6.36 8 5 8 C6.3089572 11.12197478 6.3089572 11.12197478 9 13 C9 14.65 9 16.3 9 18 C3.53389831 17.51412429 3.53389831 17.51412429 1.3125 15.375 C-0.44283562 12.19867839 -0.29564499 9.85483301 -0.1875 6.25 C-0.16042969 5.07953125 -0.13335937 3.9090625 -0.10546875 2.703125 C-0.07066406 1.81109375 -0.03585938 0.9190625 0 0 Z " fill="#04A6DB" transform="translate(174,46)"/>
<path d="M0 0 C1.65 0 3.3 0 5 0 C5 4.95 5 9.9 5 15 C3.35 15 1.7 15 0 15 C0 10.05 0 5.1 0 0 Z " fill="#04A6DB" transform="translate(221,49)"/>
<path d="M0 0 C0.66 0 1.32 0 2 0 C6.17910751 11.11574088 9.78936752 22.30575417 12 34 C11.34 34 10.68 34 10 34 C10 32.68 10 31.36 10 30 C9.34 30 8.68 30 8 30 C7.67 26.7 7.34 23.4 7 20 C6.34 20 5.68 20 5 20 C4.34 16.7 3.68 13.4 3 10 C2.67 10 2.34 10 2 10 C2 8.02 2 6.04 2 4 C1.34 4 0.68 4 0 4 C0 2.68 0 1.36 0 0 Z " fill="#6FD6F6" transform="translate(84,5)"/>
<path d="M0 0 C0.33 0.66 0.66 1.32 1 2 C1.66 2 2.32 2 3 2 C3.33 4.97 3.66 7.94 4 11 C4.66 11 5.32 11 6 11 C6.19335938 11.85722656 6.38671875 12.71445312 6.5859375 13.59765625 C7.91792493 19.44653174 9.26380085 25.25718743 11 31 C10.34 31 9.68 31 9 31 C1.94484804 10.5100374 1.94484804 10.5100374 0 0 Z " fill="#7AD9F6" transform="translate(142,5)"/>
<path d="M0 0 C0.33 0.66 0.66 1.32 1 2 C1.66 2 2.32 2 3 2 C3.33 5.3 3.66 8.6 4 12 C4.66 12 5.32 12 6 12 C6.1546875 10.3603125 6.1546875 10.3603125 6.3125 8.6875 C6.97307727 5.14440371 7.2027092 4.06756277 10 2 C9.21824485 6.84688192 7.60155722 11.3766367 6 16 C5.01 16 4.02 16 3 16 C2.49411853 14.08487728 1.99551609 12.16783078 1.5 10.25 C1.2215625 9.18265625 0.943125 8.1153125 0.65625 7.015625 C0 4 0 4 0 0 Z " fill="#6BD1F3" transform="translate(120,5)"/>
<path d="M0 0 C1.88391785 3.26545761 2.49287967 6.28111761 3 10 C3.66 10 4.32 10 5 10 C4.67 12.31 4.34 14.62 4 17 C3.34 17 2.68 17 2 17 C1.27361271 14.92289254 0.56946592 12.83799688 -0.125 10.75 C-0.51945312 9.58984375 -0.91390625 8.4296875 -1.3203125 7.234375 C-2 4 -2 4 -1.1171875 1.578125 C-0.74851562 1.05734375 -0.37984375 0.5365625 0 0 Z " fill="#2165BC" transform="translate(127,19)"/>
<path d="M0 0 C0.66 0 1.32 0 2 0 C4.27678571 8.03571429 4.27678571 8.03571429 3 12 C2.34 10.02 1.68 8.04 1 6 C-0.41377341 8.63904371 -1.37240135 11.07120629 -2 14 C-2.66 14 -3.32 14 -4 14 C-3.71715982 12.22773547 -3.42339502 10.457212 -3.125 8.6875 C-2.96257812 7.70136719 -2.80015625 6.71523438 -2.6328125 5.69921875 C-2 3 -2 3 0 0 Z " fill="#6FBAE5" transform="translate(112,23)"/>
<path d="M0 0 C1.65 0 3.3 0 5 0 C5.33 2.31 5.66 4.62 6 7 C6.66 7 7.32 7 8 7 C7.67 8.32 7.34 9.64 7 11 C3.99382731 7.99382731 4.40414684 5.17618402 4 1 C3.01 1.495 3.01 1.495 2 2 C1.40494001 4.04524321 1.04533219 6.09333957 0.66015625 8.1875 C0.44230469 8.785625 0.22445312 9.38375 0 10 C-0.99 10.33 -1.98 10.66 -3 11 C-3 10.01 -3 9.02 -3 8 C-2.34 8 -1.68 8 -1 8 C-0.67 5.36 -0.34 2.72 0 0 Z " fill="#7BCBEF" transform="translate(132,28)"/>
<path d="M0 0 C1.98 0.495 1.98 0.495 4 1 C4 2.32 4 3.64 4 5 C2.35 5 0.7 5 -1 5 C-0.67 3.35 -0.34 1.7 0 0 Z " fill="#04A6DB" transform="translate(222,43)"/>
<path d="M0 0 C1.18771723 3.42943519 0.80226223 5.37784675 -0.4375 8.75 C-0.86869141 9.94882812 -0.86869141 9.94882812 -1.30859375 11.171875 C-1.65083984 12.07679687 -1.65083984 12.07679687 -2 13 C-2.33 13 -2.66 13 -3 13 C-2.88557539 11.39504433 -2.75805306 9.79101881 -2.625 8.1875 C-2.55539063 7.29417969 -2.48578125 6.40085937 -2.4140625 5.48046875 C-2 3 -2 3 0 0 Z " fill="#749CD2" transform="translate(129,7)"/>
<path d="M0 0 C1.32 0 2.64 0 4 0 C4 2.64 4 5.28 4 8 C2.66666667 5.33333333 1.33333333 2.66666667 0 0 Z " fill="#1CB7EE" transform="translate(129,5)"/>
<path d="M0 0 C1.65 0 3.3 0 5 0 C5 0.66 5 1.32 5 2 C3.35 2 1.7 2 0 2 C0 1.34 0 0.68 0 0 Z " fill="#0DBAF3" transform="translate(111,38)"/>
</svg>
