<?xml version="1.0" encoding="UTF-8"?>
<svg version="1.1" xmlns="http://www.w3.org/2000/svg" width="200" height="200">
<path d="M0 0 C66 0 132 0 200 0 C200 66 200 132 200 200 C134 200 68 200 0 200 C0 134 0 68 0 0 Z " fill="#FEFEFE" transform="translate(0,0)"/>
<path d="M0 0 C5.81908686 2.3420183 11.19460327 5.81403945 16.5 9.125 C17.22703125 9.56714844 17.9540625 10.00929688 18.703125 10.46484375 C20.50548493 11.58623686 22.25820781 12.78666418 24 14 C24 14.66 24 15.32 24 16 C23.24195068 16.41660889 22.48390137 16.83321777 21.70288086 17.26245117 C19.41971589 18.51790786 17.13699925 19.77415625 14.85473633 21.03125 C12.22737047 22.47838636 9.59802687 23.92184645 6.9675293 25.36328125 C0.69264493 28.80896161 -5.54631286 32.29052965 -11.6953125 35.95703125 C-12.71230225 36.55684814 -13.72929199 37.15666504 -14.77709961 37.7746582 C-16.66626055 38.89458945 -18.54545934 40.03156427 -20.41235352 41.18823242 C-26.27449139 44.63988475 -31.19405316 46.57232673 -38 45 C-42.12755788 43.20217834 -45.84202237 40.92938884 -49.625 38.5 C-50.62917969 37.87996094 -51.63335937 37.25992188 -52.66796875 36.62109375 C-55.12502109 35.10006135 -57.567538 33.55994152 -60 32 C-58.74058292 28.22174876 -57.67441058 27.97171967 -54.2421875 26.1015625 C-53.23438232 25.5456543 -52.22657715 24.98974609 -51.18823242 24.41699219 C-50.09486572 23.82563477 -49.00149902 23.23427734 -47.875 22.625 C-45.59731911 21.37300897 -43.31998354 20.12038957 -41.04296875 18.8671875 C-40.46096207 18.54858765 -39.87895538 18.22998779 -39.27931213 17.9017334 C-33.21318405 14.58045231 -27.19962636 11.16789917 -21.1875 7.75 C-19.30658276 6.68124706 -17.42511662 5.61345924 -15.54296875 4.546875 C-14.3677063 3.87930176 -14.3677063 3.87930176 -13.16870117 3.19824219 C-8.41307629 0.57068315 -5.60494138 -0.56049414 0 0 Z " fill="#041B2E" transform="translate(118,53)"/>
<path d="M0 0 C2.10821743 1.80879656 2.90480851 3.29388688 3.27609253 6.04800415 C3.39857987 8.68526697 3.41557477 11.30523582 3.3984375 13.9453125 C3.40130768 14.91153534 3.40417786 15.87775818 3.40713501 16.8732605 C3.40917415 18.91242052 3.4036548 20.95160018 3.39111328 22.99072266 C3.37502283 26.12055856 3.3909852 29.24910989 3.41015625 32.37890625 C3.40817448 34.35937786 3.40433217 36.33984867 3.3984375 38.3203125 C3.40754654 39.72967575 3.40754654 39.72967575 3.4168396 41.16751099 C3.40738312 42.03536224 3.39792664 42.9032135 3.38818359 43.79736328 C3.38579681 44.56251251 3.38341003 45.32766174 3.38095093 46.11599731 C3 48 3 48 0 50 C-5.60665986 49.83654053 -9.54853418 47.18776841 -14.125 44.25 C-14.82753906 43.81945312 -15.53007813 43.38890625 -16.25390625 42.9453125 C-20.22758858 40.4364091 -23.72604871 38.21400594 -26 34 C-26.58894825 30.31945192 -26.60389656 26.72082038 -26.5625 23 C-26.58634766 22.01515625 -26.61019531 21.0303125 -26.63476562 20.015625 C-26.62553662 15.46264792 -26.60865832 12.84241021 -23.89453125 9.0859375 C-20.69870341 6.78287128 -17.5333926 4.59905819 -14.125 2.625 C-13.53847656 2.25761719 -12.95195313 1.89023438 -12.34765625 1.51171875 C-7.88882642 -1.08518214 -4.9334723 -1.48598563 0 0 Z " fill="#071E30" transform="translate(114,97)"/>
<path d="M0 0 C0.33 1.32 0.66 2.64 1 4 C-1.14919975 7.28701138 -4.36716484 7.95051429 -8 9 C-7.67 8.01 -7.34 7.02 -7 6 C-7.66 5.67 -8.32 5.34 -9 5 C-6.03 3.35 -3.06 1.7 0 0 Z " fill="#0F2231" transform="translate(109,54)"/>
<path d="M0 0 C-0.33 1.32 -0.66 2.64 -1 4 C-1.804375 4.12375 -2.60875 4.2475 -3.4375 4.375 C-4.7059375 4.684375 -4.7059375 4.684375 -6 5 C-6.33 5.66 -6.66 6.32 -7 7 C-8.32 6.34 -9.64 5.68 -11 5 C-7.17906575 1.05170128 -5.52310605 -0.1453449 0 0 Z " fill="#192A3A" transform="translate(112,96)"/>
<path d="M0 0 C0 3 0 3 -2 6 C-2.99 5.67 -3.98 5.34 -5 5 C-5 5.66 -5 6.32 -5 7 C-5.66 6.67 -6.32 6.34 -7 6 C-2.25 1.125 -2.25 1.125 0 0 Z " fill="#102233" transform="translate(95,103)"/>
<path d="M0 0 C0 0.66 0 1.32 0 2 C-3.465 3.485 -3.465 3.485 -7 5 C-6.6875 3.0625 -6.6875 3.0625 -6 1 C-3 0 -3 0 0 0 Z " fill="#132432" transform="translate(128,75)"/>
</svg>
